<?xml version="1.0" encoding="utf-8"?>
<!-- Generator: Adobe Illustrator 25.2.1, SVG Export Plug-In . SVG Version: 6.00 Build 0)  -->
<svg version="1.1" id="Layer_1" xmlns="http://www.w3.org/2000/svg" xmlns:xlink="http://www.w3.org/1999/xlink" x="0px" y="0px"
	 viewBox="0 0 130.6 311.4" style="enable-background:new 0 0 130.6 311.4;" xml:space="preserve">
<style type="text/css">
	.st0{fill:#E1E8EC;}
	.st1{opacity:0.5;fill:#FFFFFF;}
	.st2{opacity:0.1;}
	.st3{opacity:0.1;fill:url(#SVGID_1_);}
	.st4{opacity:0.2;fill:url(#SVGID_2_);}
	.st5{opacity:0.2;fill:url(#SVGID_3_);}
	.st6{opacity:0.15;}
	.st7{opacity:7.000000e-02;fill:url(#SVGID_4_);}
	.st8{opacity:7.000000e-02;fill:url(#SVGID_5_);}
	.st9{opacity:0.1;fill:url(#SVGID_6_);}
	.st10{opacity:0.1;fill:url(#SVGID_7_);}
	.st11{opacity:0.1;fill:url(#SVGID_8_);}
	.st12{opacity:0.1;fill:url(#SVGID_9_);}
	.st13{opacity:5.000000e-02;}
	.st14{fill:#303E42;}
	.st15{fill:#141C1E;}
	.st16{opacity:0.5;fill:#3D4B4F;}
	.st17{opacity:0.2;fill:#FFFFFF;}
	.st18{opacity:0.2;}
	.st19{fill:#FFFFFF;}
	.st20{fill:#626B6E;}
	.st21{fill:#555E61;}
	.st22{fill:#3B4447;}
	.st23{fill:url(#SVGID_10_);}
	.st24{fill:#212A2D;}
	.st25{fill:url(#SVGID_11_);}
	.st26{fill:#151E21;}
	.st27{fill:url(#SVGID_12_);}
	.st28{fill:url(#SVGID_13_);}
	.st29{fill:url(#SVGID_14_);}
	.st30{fill:url(#SVGID_15_);}
	.st31{fill:url(#SVGID_16_);}
	.st32{fill:url(#SVGID_17_);}
	.st33{fill:url(#SVGID_18_);}
	.st34{fill:url(#SVGID_19_);}
	.st35{fill:url(#SVGID_20_);}
	.st36{opacity:0.4;}
	.st37{fill:url(#SVGID_21_);}
	.st38{fill:url(#SVGID_22_);}
	.st39{fill:url(#SVGID_23_);}
	.st40{fill:url(#SVGID_24_);}
	.st41{opacity:0.7;fill:url(#SVGID_25_);}
	.st42{opacity:0.9;fill:#FFFFFF;}
	.st43{fill:#CA2A3A;}
	.st44{fill:url(#SVGID_26_);}
	.st45{fill:url(#SVGID_27_);}
	.st46{fill:url(#SVGID_28_);}
	.st47{fill:url(#SVGID_29_);}
	.st48{opacity:0.7;fill:url(#SVGID_30_);}
</style>
<g>
	<path class="st0" d="M65.3,1.6c6.6,0,40.7,0.7,40.7,0.7s4.4,0,5,0c0.7,0,1.8,0.8,2.6,2.5c0.8,1.7,1,4,1,4L114.6,202
		c0,3.4-0.7,39.1-0.7,39.1s0.8,15.7,0.7,24.8c-0.1,9.2-0.2,15.9-1.4,19.3c-1.2,3.4-3.4,9.6-7.5,14.5c-4.1,4.9-9.2,6.5-13.9,8
		c-4.7,1.4-21.4,2.2-26.5,2.2c-5.1,0-21.8-0.7-26.5-2.2c-4.7-1.4-9.8-3.1-13.9-8c-4.1-4.9-6.3-11.1-7.5-14.5
		c-1.2-3.4-1.2-10.1-1.4-19.3c-0.1-9.2,0.7-24.8,0.7-24.8S16,205.4,16,202L15.9,8.8c0,0,0.2-2.3,1-4c0.8-1.7,1.9-2.4,2.6-2.5
		c0.7,0,5,0,5,0S58.7,1.6,65.3,1.6z"/>
	<path class="st1" d="M36.6,21.7v176.4c0,0.3-0.3,0.6-0.6,0.6h-2.1c-0.1,0-0.2,0-0.2,0c0.1,0.2,0.3,0.4,0.6,0.4h2.1
		c0.3,0,0.6-0.3,0.6-0.6V22c0-0.3-0.2-0.5-0.4-0.6C36.5,21.5,36.6,21.6,36.6,21.7z"/>
	<path class="st2" d="M33.5,22v176.4c0,0.3,0.2,0.5,0.4,0.6c0-0.1-0.1-0.2-0.1-0.3V22.3c0-0.3,0.3-0.6,0.6-0.6h2.1
		c0.1,0,0.2,0,0.2,0.1c-0.1-0.2-0.3-0.4-0.6-0.4h-2.1C33.8,21.4,33.5,21.7,33.5,22z"/>
	<path class="st1" d="M43.4,21.7v176.4c0,0.3-0.3,0.6-0.6,0.6h-2.1c-0.1,0-0.2,0-0.2,0c0.1,0.2,0.3,0.4,0.6,0.4h2.1
		c0.3,0,0.6-0.3,0.6-0.6V22c0-0.3-0.2-0.5-0.4-0.6C43.3,21.5,43.4,21.6,43.4,21.7z"/>
	<path class="st2" d="M40.3,22v176.4c0,0.3,0.2,0.5,0.4,0.6c0-0.1-0.1-0.2-0.1-0.3V22.3c0-0.3,0.3-0.6,0.6-0.6h2.1
		c0.1,0,0.2,0,0.3,0.1c-0.1-0.2-0.3-0.4-0.6-0.4H41C40.6,21.4,40.3,21.7,40.3,22z"/>
	<path class="st1" d="M50.2,21.7v176.4c0,0.3-0.3,0.6-0.6,0.6h-2.1c-0.1,0-0.2,0-0.2,0c0.1,0.2,0.3,0.4,0.6,0.4h2.1
		c0.3,0,0.6-0.3,0.6-0.6V22c0-0.3-0.2-0.5-0.4-0.6C50.2,21.5,50.2,21.6,50.2,21.7z"/>
	<path class="st2" d="M47.2,22v176.4c0,0.3,0.2,0.5,0.4,0.6c0-0.1-0.1-0.2-0.1-0.3V22.3c0-0.3,0.3-0.6,0.6-0.6h2.1
		c0.1,0,0.2,0,0.3,0.1c-0.1-0.2-0.3-0.4-0.6-0.4h-2.1C47.4,21.4,47.2,21.7,47.2,22z"/>
	<path class="st1" d="M57,21.7v176.4c0,0.3-0.3,0.6-0.6,0.6h-2.1c-0.1,0-0.2,0-0.2,0c0.1,0.2,0.3,0.4,0.6,0.4h2.1
		c0.3,0,0.6-0.3,0.6-0.6V22c0-0.3-0.2-0.5-0.4-0.6C57,21.5,57,21.6,57,21.7z"/>
	<path class="st2" d="M54,22v176.4c0,0.3,0.2,0.5,0.4,0.6c0-0.1-0.1-0.2-0.1-0.3V22.3c0-0.3,0.3-0.6,0.6-0.6H57c0.1,0,0.2,0,0.2,0.1
		c-0.1-0.2-0.3-0.4-0.6-0.4h-2.1C54.2,21.4,54,21.7,54,22z"/>
	<path class="st1" d="M63.8,21.7v176.4c0,0.3-0.3,0.6-0.6,0.6h-2.1c-0.1,0-0.2,0-0.2,0c0.1,0.2,0.3,0.4,0.6,0.4h2.1
		c0.3,0,0.6-0.3,0.6-0.6V22c0-0.3-0.2-0.5-0.4-0.6C63.8,21.5,63.8,21.6,63.8,21.7z"/>
	<path class="st2" d="M60.8,22v176.4c0,0.3,0.2,0.5,0.4,0.6c0-0.1-0.1-0.2-0.1-0.3V22.3c0-0.3,0.3-0.6,0.6-0.6h2.1
		c0.1,0,0.2,0,0.2,0.1c-0.1-0.2-0.3-0.4-0.6-0.4h-2.1C61.1,21.4,60.8,21.7,60.8,22z"/>
	<path class="st1" d="M70.6,21.7v176.4c0,0.3-0.3,0.6-0.6,0.6h-2.1c-0.1,0-0.2,0-0.2,0c0.1,0.2,0.3,0.4,0.6,0.4h2.1
		c0.3,0,0.6-0.3,0.6-0.6V22c0-0.3-0.2-0.5-0.4-0.6C70.6,21.5,70.6,21.6,70.6,21.7z"/>
	<path class="st2" d="M67.6,22v176.4c0,0.3,0.2,0.5,0.4,0.6c0-0.1-0.1-0.2-0.1-0.3V22.3c0-0.3,0.3-0.6,0.6-0.6h2.1
		c0.1,0,0.2,0,0.3,0.1c-0.1-0.2-0.3-0.4-0.6-0.4h-2.1C67.9,21.4,67.6,21.7,67.6,22z"/>
	<path class="st1" d="M77.4,21.7v176.4c0,0.3-0.3,0.6-0.6,0.6h-2.1c-0.1,0-0.2,0-0.2,0c0.1,0.2,0.3,0.4,0.6,0.4h2.1
		c0.3,0,0.6-0.3,0.6-0.6V22c0-0.3-0.2-0.5-0.4-0.6C77.4,21.5,77.4,21.6,77.4,21.7z"/>
	<path class="st2" d="M74.4,22v176.4c0,0.3,0.2,0.5,0.4,0.6c0-0.1-0.1-0.2-0.1-0.3V22.3c0-0.3,0.3-0.6,0.6-0.6h2.1
		c0.1,0,0.2,0,0.3,0.1c-0.1-0.2-0.3-0.4-0.6-0.4H75C74.7,21.4,74.4,21.7,74.4,22z"/>
	<path class="st1" d="M84.2,21.7v176.4c0,0.3-0.3,0.6-0.6,0.6h-2.1c-0.1,0-0.2,0-0.2,0c0.1,0.2,0.3,0.4,0.6,0.4h2.1
		c0.3,0,0.6-0.3,0.6-0.6V22c0-0.3-0.2-0.5-0.4-0.6C84.2,21.5,84.2,21.6,84.2,21.7z"/>
	<path class="st2" d="M81.2,22v176.4c0,0.3,0.2,0.5,0.4,0.6c0-0.1-0.1-0.2-0.1-0.3V22.3c0-0.3,0.3-0.6,0.6-0.6h2.1
		c0.1,0,0.2,0,0.2,0.1c-0.1-0.2-0.3-0.4-0.6-0.4h-2.1C81.5,21.4,81.2,21.7,81.2,22z"/>
	<path class="st1" d="M91,21.7v176.4c0,0.3-0.3,0.6-0.6,0.6h-2.1c-0.1,0-0.2,0-0.2,0c0.1,0.2,0.3,0.4,0.6,0.4h2.1
		c0.3,0,0.6-0.3,0.6-0.6V22c0-0.3-0.2-0.5-0.4-0.6C91,21.5,91,21.6,91,21.7z"/>
	<path class="st2" d="M88,22v176.4c0,0.3,0.2,0.5,0.4,0.6c0-0.1-0.1-0.2-0.1-0.3V22.3c0-0.3,0.3-0.6,0.6-0.6H91c0.1,0,0.2,0,0.3,0.1
		c-0.1-0.2-0.3-0.4-0.6-0.4h-2.1C88.3,21.4,88,21.7,88,22z"/>
	<path class="st1" d="M97.8,21.7v176.4c0,0.3-0.3,0.6-0.6,0.6h-2.1c-0.1,0-0.2,0-0.2,0c0.1,0.2,0.3,0.4,0.6,0.4h2.1
		c0.3,0,0.6-0.3,0.6-0.6V22c0-0.3-0.2-0.5-0.4-0.6C97.8,21.5,97.8,21.6,97.8,21.7z"/>
	<path class="st2" d="M94.8,22v176.4c0,0.3,0.2,0.5,0.4,0.6c0-0.1-0.1-0.2-0.1-0.3V22.3c0-0.3,0.3-0.6,0.6-0.6h2.1
		c0.1,0,0.2,0,0.3,0.1c-0.1-0.2-0.3-0.4-0.6-0.4h-2.1C95.1,21.4,94.8,21.7,94.8,22z"/>
	
		<linearGradient id="SVGID_1_" gradientUnits="userSpaceOnUse" x1="9.7788" y1="166.2305" x2="94.2622" y2="166.2305" gradientTransform="matrix(4.489659e-11 -1 1 4.489659e-11 -100.5966 300.2737)">
		<stop  offset="0.2522" style="stop-color:#FFFFFF"/>
		<stop  offset="0.555" style="stop-color:#000000"/>
		<stop  offset="1" style="stop-color:#FFFFFF"/>
	</linearGradient>
	<path class="st3" d="M23.8,238.1c-0.3,2.5-0.5,15.4-0.8,21.6c-0.3,6.2-0.4,11.5,0,15c0,0,2.3,9.6,6.7,11.3c4.4,1.7,5.1,1.7,5.1,1.7
		s14.3,2.7,30.8,2.7c16.5,0,30.8-2.7,30.8-2.7s6-1.8,7.8-3.9c1.8-2.1,4-9.2,4-9.2c0.4-3.5,0.3-8.8,0-15c-0.3-6.2-0.6-19.1-0.8-21.6
		c-0.3-2.5-1.5-25.6-1.5-32.1H25.3C25.3,212.5,24.1,235.6,23.8,238.1z M100.4,234c0,0,0.2,2.8-2.7,3.7c-2.8,0.8-12.2,1.4-15.9,1.4
		c-3.6,0-3.3-3.8-3.2-5.1c0.1-1.3,2-22.5,2-22.5l0.8,22.5c0,0,0.5,2.6,3.4,2.6c2.9-0.1,9.6-0.6,10.9-0.7c1.3-0.1,3.8-1.2,3.8-3.9
		c0-2.8,0-20.2,0-20.2l0.8-4.4V234z M31.2,211.6c0,0,0,17.5,0,20.2c0,2.8,2.6,3.8,3.8,3.9c1.3,0.1,8,0.6,10.9,0.7
		c2.9,0.1,3.4-2.6,3.4-2.6l0.8-22.5c0,0,1.9,21.2,2,22.5c0.1,1.3,0.4,5.1-3.2,5.1c-3.6,0-13-0.5-15.9-1.4c-2.8-0.9-2.7-3.7-2.7-3.7
		v-26.8L31.2,211.6z"/>
	
		<linearGradient id="SVGID_2_" gradientUnits="userSpaceOnUse" x1="61.1047" y1="141.8822" x2="89.5257" y2="141.8822" gradientTransform="matrix(4.489659e-11 -1 1 4.489659e-11 -100.5966 300.2737)">
		<stop  offset="0" style="stop-color:#000000"/>
		<stop  offset="1" style="stop-color:#FFFFFF"/>
	</linearGradient>
	<path class="st4" d="M30.4,207.2V234c0,0-0.2,2.8,2.7,3.7c2.8,0.8,12.2,1.4,15.9,1.4c3.6,0,3.3-3.8,3.2-5.1c-0.1-1.3-2-22.5-2-22.5
		l-0.8,22.5c0,0-0.5,2.6-3.4,2.6c-2.9-0.1-9.6-0.6-10.9-0.7c-1.3-0.1-3.8-1.2-3.8-3.9c0-2.8,0-20.2,0-20.2L30.4,207.2z"/>
	
		<linearGradient id="SVGID_3_" gradientUnits="userSpaceOnUse" x1="61.1047" y1="190.1317" x2="89.5257" y2="190.1317" gradientTransform="matrix(4.489659e-11 -1 1 4.489659e-11 -100.5966 300.2737)">
		<stop  offset="0" style="stop-color:#000000"/>
		<stop  offset="1" style="stop-color:#FFFFFF"/>
	</linearGradient>
	<path class="st5" d="M100.4,207.2V234c0,0,0.2,2.8-2.7,3.7c-2.8,0.8-12.2,1.4-15.9,1.4c-3.6,0-3.3-3.8-3.2-5.1
		c0.1-1.3,2-22.5,2-22.5l0.8,22.5c0,0,0.5,2.6,3.4,2.6c2.9-0.1,9.6-0.6,10.9-0.7c1.3-0.1,3.8-1.2,3.8-3.9c0-2.8,0-20.2,0-20.2
		L100.4,207.2z"/>
	<path class="st2" d="M105.9,10c0,0,0,189.4,0.1,196c0,6.5,1.3,29.6,1.5,32.1c0.2,2.5,0.5,15.4,0.8,21.6c0.3,6.2,0.4,11.5,0,15
		c0,0-2.2,7.1-4,9.2c-1.8,2.1-7.8,3.9-7.8,3.9s-14.3,2.7-30.8,2.7c-16.5,0-30.8-2.7-30.8-2.7s-0.7,0-5.1-1.7
		c-4.4-1.7-6.7-11.3-6.7-11.3c-0.4-3.5-0.3-8.8,0-15c0.3-6.2,0.6-19.1,0.8-21.6c0.3-2.5,1.5-25.6,1.5-32.1c0.1-6.5,0.1-196,0.1-196
		s-0.1-3.1-1.7-3.5c-1.4-0.4-3.8-2.6-5-3.9c-0.6,0.4-1.2,1-1.8,2.2c-0.8,1.7-1,4-1,4L16,202c0,3.4,0.7,39.1,0.7,39.1
		s-0.8,15.7-0.7,24.8c0.1,9.2,0.2,15.9,1.4,19.3c1.2,3.4,3.4,9.6,7.5,14.5c4.1,4.9,9.2,6.5,13.9,8c4.7,1.4,21.5,2.2,26.5,2.2
		c5.1,0,21.8-0.7,26.5-2.2c4.7-1.4,9.8-3.1,13.9-8c4.1-4.9,6.3-11.1,7.5-14.5c1.2-3.4,1.2-10.1,1.4-19.3c0.1-9.2-0.7-24.8-0.7-24.8
		s0.7-35.7,0.7-39.1l0.1-193.1c0,0-0.2-2.3-1-4c-0.4-0.9-0.9-1.5-1.4-1.9c-1.3,1.3-3.5,3.3-4.7,3.6C106,6.9,105.9,10,105.9,10z
		 M23.9,14v196.9l-0.5,2.1l0.1-199.6L23.9,14z M17,202.7c0-0.9,0.1-68.6,0.1-68.6L17,14.2c0,0,0-0.8,0.5-0.8c0.5,0,3,0,3,0v0.4h-3
		c0,0-0.2,0.1-0.2,0.6c0,0.4,0.1,119.9,0.1,119.9l0,68.6c0,0,0,0.4,0.7,0.4c0.6,0,4.8,0,4.8,0l0.1,0.3h-5
		C18,203.4,17,203.7,17,202.7z M17.5,216.1c0-3.2,1.2-6.3,1.8-7c0.7-0.7,1.1,0,1.1,0s0.2,4.8,0.4,9.1c0.3,4.3,1.1,14.7,1.1,17.3
		c0,2.6-1.4,28.4-1.6,29.8c-0.3,2.7-1.3,0.1-1.5-1.9c-0.2-2-0.8-14.5-1-19.7C17.8,238.5,17.5,219.4,17.5,216.1z M20.6,289.2
		c-3.9-9.3-2.8-16.2-2.8-19.6c0-3.4-0.2-19.1-0.2-19.1s1.6,23.6,2.4,28.8c0.8,5.2,2.7,9.9,5.9,12.9c3,2.7,6.8,4.2,11.6,4.6l-0.7,6.1
		C30.9,301.7,24.5,298.5,20.6,289.2z M113.5,269.6c0,3.4,1,10.3-2.8,19.6c-3.9,9.3-10.4,12.5-16.2,13.8l-0.7-6.1
		c4.8-0.4,8.6-1.9,11.6-4.6c3.3-3,5.1-7.7,5.9-12.9c0.8-5.2,2.4-28.8,2.4-28.8S113.5,266.2,113.5,269.6z M111.9,209.1
		c0.7,0.7,1.8,3.8,1.8,7c0,3.2-0.3,22.4-0.4,27.6c-0.2,5.2-0.8,17.7-1,19.7c-0.2,2-1.2,4.6-1.5,1.9c-0.2-1.4-1.6-27.2-1.6-29.8
		c0-2.6,0.8-13,1.1-17.3c0.3-4.3,0.4-9.1,0.4-9.1S111.3,208.4,111.9,209.1z M114.2,14.2l-0.1,119.9c0,0,0.1,67.7,0.1,68.6
		c0,0.9-0.9,0.7-0.9,0.7h-5l0.1-0.3c0,0,4.2-0.1,4.8,0c0.6,0,0.7-0.4,0.7-0.4l0-68.6c0,0,0.1-119.4,0.1-119.9c0-0.4-0.2-0.6-0.2-0.6
		h-3v-0.4c0,0,2.4,0,3,0C114.2,13.4,114.2,14.2,114.2,14.2z M107.8,213l-0.5-2.1V14l0.3-0.6L107.8,213z"/>
	<g class="st6">
		<path d="M18,3.2c-0.1,0.1-0.1,0.1-0.2,0.2C17.9,3.3,18,3.3,18,3.2z"/>
		<path d="M18.5,2.8c0.1,0,0.1-0.1,0.2-0.1C18.6,2.7,18.6,2.7,18.5,2.8z"/>
		<path d="M112.5,3.1c-0.5-0.5-1-0.7-1.4-0.7c-0.7,0-5,0-5,0S71.9,1.6,65.3,1.6c-6.6,0-40.7,0.7-40.7,0.7s-4.4,0-5,0
			c-0.2,0-0.5,0.1-0.8,0.3c1.2,1.2,3.7,3.5,5,3.9c0.4,0.1,0.7,0.4,0.9,0.7h82c0.2-0.4,0.5-0.6,0.9-0.7c1.3-0.3,3.4-2.3,4.7-3.6
			C112.3,3,112.4,3,112.5,3.1z"/>
		<path d="M112.5,3.2c0.1,0.1,0.1,0.1,0.2,0.2v0C112.7,3.3,112.6,3.2,112.5,3.2z"/>
		<path d="M18.2,3.1c0.1-0.1,0.2-0.1,0.2-0.2C18.3,2.9,18.3,3,18.2,3.1z"/>
		<path d="M17.2,4.3c0-0.1,0.1-0.1,0.1-0.2C17.3,4.1,17.3,4.2,17.2,4.3z"/>
		<path d="M17.5,3.8c0.1-0.1,0.1-0.2,0.2-0.2C17.6,3.7,17.6,3.8,17.5,3.8z"/>
	</g>
	
		<linearGradient id="SVGID_4_" gradientUnits="userSpaceOnUse" x1="20.3515" y1="123.0104" x2="20.3515" y2="209.7565" gradientTransform="matrix(4.489659e-11 -1 1 4.489659e-11 -100.5966 300.2737)">
		<stop  offset="0" style="stop-color:#000000"/>
		<stop  offset="8.313516e-03" style="stop-color:#151515"/>
		<stop  offset="2.989457e-02" style="stop-color:#454545"/>
		<stop  offset="5.320876e-02" style="stop-color:#727272"/>
		<stop  offset="7.775661e-02" style="stop-color:#989898"/>
		<stop  offset="0.1038" style="stop-color:#B8B8B8"/>
		<stop  offset="0.1319" style="stop-color:#D2D2D2"/>
		<stop  offset="0.1627" style="stop-color:#E6E6E6"/>
		<stop  offset="0.1977" style="stop-color:#F4F4F4"/>
		<stop  offset="0.2404" style="stop-color:#FDFDFD"/>
		<stop  offset="0.3128" style="stop-color:#FFFFFF"/>
		<stop  offset="0.754" style="stop-color:#FFFFFF"/>
		<stop  offset="0.7996" style="stop-color:#FCFCFC"/>
		<stop  offset="0.8323" style="stop-color:#F3F3F3"/>
		<stop  offset="0.861" style="stop-color:#E3E3E3"/>
		<stop  offset="0.8874" style="stop-color:#CDCDCD"/>
		<stop  offset="0.9122" style="stop-color:#B0B0B0"/>
		<stop  offset="0.9359" style="stop-color:#8D8D8D"/>
		<stop  offset="0.9586" style="stop-color:#636363"/>
		<stop  offset="0.9801" style="stop-color:#333333"/>
		<stop  offset="1" style="stop-color:#000000"/>
	</linearGradient>
	<path class="st7" d="M29.7,286c4.4,1.7,5.1,1.7,5.1,1.7s14.3,2.7,30.8,2.7c16.5,0,30.8-2.7,30.8-2.7s6-1.8,7.8-3.9
		c1.8-2.1,4-9.2,4-9.2c0.2-1.5,0.2-3.3,0.2-5.4c-0.3,0.2-0.6,0.5-1.1,0.7c-2.7,1.8-34.1,7.6-49.2,6.5c-15.1-1.2-35.2-6.5-35.2-6.5
		l-0.3,0.1c0,1.7,0.1,3.2,0.2,4.5C23,274.7,25.3,284.3,29.7,286z"/>
	
		<linearGradient id="SVGID_5_" gradientUnits="userSpaceOnUse" x1="9.6285" y1="166.2369" x2="-0.3859" y2="166.2369" gradientTransform="matrix(4.489659e-11 -1 1 4.489659e-11 -100.5966 300.2737)">
		<stop  offset="0" style="stop-color:#FFFFFF"/>
		<stop  offset="1" style="stop-color:#000000"/>
	</linearGradient>
	<path class="st8" d="M94.5,296.8c0.3-1.9,1.2-7.8,1.3-8.9c-3,0.5-15.7,2.6-30.2,2.6c-14.4,0-27.2-2.1-30.2-2.6
		c0.4,2.4,1.2,7.4,1.5,9c0.2,0,0.4,0,0.5,0.1l-0.1,0.5l3.6,0.8c0,0,4,3.4,10.7,3.7c6.7,0.3,38.8-3,38.8-3s2.3,0,3.4-1l-0.1-1
		C94,296.9,94.2,296.8,94.5,296.8z"/>
	
		<linearGradient id="SVGID_6_" gradientUnits="userSpaceOnUse" x1="11.9624" y1="177.3057" x2="17.9677" y2="177.3057" gradientTransform="matrix(4.489659e-11 -1 1 4.489659e-11 -100.5966 300.2737)">
		<stop  offset="0" style="stop-color:#FFFFFF"/>
		<stop  offset="1" style="stop-color:#000000"/>
	</linearGradient>
	<path class="st9" d="M76.8,282.5c-2.2,0.1-8.1,0.2-8.6,0.2c-0.5,0-0.8,0.2-1,0.8c-0.2,0.6-0.2,3.4-0.2,3.5c0,0.1,0.2,0.8,0.9,0.8
		c1,0,7.2-0.1,9.1-0.1c1.9,0,8.1-0.6,8.6-0.6c0.6-0.1,0.9-0.3,0.9-1c0-0.7-0.1-3.4-0.1-3.8c0-0.3-0.5-0.3-1.4-0.3
		C84,282,79,282.4,76.8,282.5z M86.1,282.4C86.1,282.4,86.1,282.4,86.1,282.4c0,0.2,0,0.6,0,1c0,0.8,0.1,2,0.1,2.6
		c0,0.1,0,0.2,0,0.2c0,0.6-0.3,0.7-0.7,0.8c-0.5,0-6.7,0.6-8.6,0.6c-1.9,0-8.2,0.1-9.1,0.1c-0.4,0-0.6-0.5-0.6-0.6
		c0-0.5,0-3,0.2-3.5c0.1-0.5,0.4-0.6,0.7-0.6c0.3,0,2.7-0.1,5.1-0.1c1.4,0,2.7-0.1,3.6-0.1c1.2,0,3.3-0.2,5.1-0.3
		c1.4-0.1,2.7-0.2,3.1-0.2C85.4,282.3,86,282.3,86.1,282.4z"/>
	
		<linearGradient id="SVGID_7_" gradientUnits="userSpaceOnUse" x1="12.397" y1="155.1553" x2="18.2368" y2="155.1553" gradientTransform="matrix(4.489659e-11 -1 1 4.489659e-11 -100.5966 300.2737)">
		<stop  offset="0" style="stop-color:#FFFFFF"/>
		<stop  offset="1" style="stop-color:#000000"/>
	</linearGradient>
	<path class="st10" d="M44.9,282.4c0,0.3-0.1,3.1-0.1,3.8c0,0.7,0.3,0.9,0.9,1c0.6,0.1,6.7,0.6,8.6,0.6c1.9,0,8.2,0.1,9.1,0.1
		c0.6,0,0.9-0.7,0.9-0.8c0-0.1,0-2.9-0.2-3.5c-0.2-0.6-0.5-0.8-1-0.8c-0.5,0-6.4-0.2-8.6-0.2c-2.2-0.1-7.2-0.4-8.1-0.4
		C45.4,282,44.9,282,44.9,282.4z M49.4,282.5c1.8,0.1,3.8,0.2,5.1,0.3c0.8,0,2.2,0.1,3.6,0.1c2.3,0.1,4.8,0.1,5.1,0.1
		c0.4,0,0.6,0.1,0.7,0.6c0.1,0.5,0.2,3,0.2,3.5c0,0.1-0.2,0.6-0.6,0.6c-0.9,0-7.2-0.1-9.1-0.1c-1.9,0-8.1-0.6-8.6-0.6
		c-0.4,0-0.6-0.2-0.7-0.8c0-0.1,0-0.1,0-0.2c0-0.6,0-1.7,0.1-2.6c0-0.4,0-0.7,0-0.9c0,0,0-0.1,0-0.1c0.1-0.1,0.7-0.1,1.2-0.1
		C46.7,282.3,48,282.4,49.4,282.5z"/>
	
		<linearGradient id="SVGID_8_" gradientUnits="userSpaceOnUse" x1="16.0491" y1="177.3055" x2="8.7643" y2="177.3055" gradientTransform="matrix(4.489659e-11 -1 1 4.489659e-11 -100.5966 300.2737)">
		<stop  offset="0" style="stop-color:#FFFFFF"/>
		<stop  offset="1" style="stop-color:#000000"/>
	</linearGradient>
	<path class="st11" d="M86.1,282.4C86.1,282.4,86.1,282.4,86.1,282.4c0,0.2,0,0.6,0,1c0,0.8,0.1,2,0.1,2.6c0,0.1,0,0.2,0,0.2
		c0,0.6-0.3,0.7-0.7,0.8c-0.5,0-6.7,0.6-8.6,0.6c-1.9,0-8.2,0.1-9.1,0.1c-0.4,0-0.6-0.5-0.6-0.6c0-0.5,0-3,0.2-3.5
		c0.1-0.5,0.4-0.6,0.7-0.6c0.3,0,2.7-0.1,5.1-0.1c1.4,0,2.7-0.1,3.6-0.1c1.2,0,3.3-0.2,5.1-0.3c1.4-0.1,2.7-0.2,3.1-0.2
		C85.4,282.3,86,282.3,86.1,282.4z"/>
	
		<linearGradient id="SVGID_9_" gradientUnits="userSpaceOnUse" x1="15.8899" y1="155.1556" x2="9.7166" y2="155.1556" gradientTransform="matrix(4.489659e-11 -1 1 4.489659e-11 -100.5966 300.2737)">
		<stop  offset="0" style="stop-color:#FFFFFF"/>
		<stop  offset="1" style="stop-color:#000000"/>
	</linearGradient>
	<path class="st12" d="M49.4,282.5c1.8,0.1,3.8,0.2,5.1,0.3c0.8,0,2.2,0.1,3.6,0.1c2.3,0.1,4.8,0.1,5.1,0.1c0.4,0,0.6,0.1,0.7,0.6
		c0.1,0.5,0.2,3,0.2,3.5c0,0.1-0.2,0.6-0.6,0.6c-0.9,0-7.2-0.1-9.1-0.1c-1.9,0-8.1-0.6-8.6-0.6c-0.4,0-0.6-0.2-0.7-0.8
		c0-0.1,0-0.1,0-0.2c0-0.6,0-1.7,0.1-2.6c0-0.4,0-0.7,0-0.9c0,0,0-0.1,0-0.1c0.1-0.1,0.7-0.1,1.2-0.1
		C46.7,282.3,48,282.4,49.4,282.5z"/>
	<path class="st13" d="M108.1,10.4c-0.7,0.3-0.7,3.6-0.7,3.6l0.3-0.6l0.1,199.6l-0.5-2.1c0,1.7,1.7,22.8,1.9,24.3
		c0.2,1.5,0.4,2.2,0.4,2.2l4.2,0.4c0.2-8.9,0.6-33.1,0.6-35.8l0.1-193.1c0,0,0-0.2,0-0.4C112.9,8.9,108.7,10.2,108.1,10.4z
		 M114.2,14.2l-0.1,119.9c0,0,0.1,67.7,0.1,68.6c0,0.9-0.9,0.7-0.9,0.7h-5l0.1-0.3c0,0,4.2-0.1,4.8,0c0.6,0,0.7-0.4,0.7-0.4l0-68.6
		c0,0,0.1-119.4,0.1-119.9c0-0.4-0.2-0.6-0.2-0.6h-3v-0.4c0,0,2.4,0,3,0C114.2,13.4,114.2,14.2,114.2,14.2z"/>
	<path class="st13" d="M15.9,8.8L16,202c0,2.8,0.5,27.1,0.6,35.9l4.9-0.5c0,0,0.2-0.7,0.4-2.2c0.2-1.5,1.9-22.5,1.9-24.3l-0.5,2.1
		l0.1-199.6l0.3,0.6c0,0,0-3.3-0.7-3.6c-0.6-0.2-6.3-1.9-7.2-2.2C15.9,8.6,15.9,8.8,15.9,8.8z M20.5,13.4v0.4h-3
		c0,0-0.2,0.1-0.2,0.6c0,0.4,0.1,119.9,0.1,119.9l0,68.6c0,0,0,0.4,0.7,0.4c0.6,0,4.8,0,4.8,0l0.1,0.3h-5c0,0-0.9,0.3-0.9-0.7
		c0-0.9,0.1-68.6,0.1-68.6L17,14.2c0,0,0-0.8,0.5-0.8C18.1,13.4,20.5,13.4,20.5,13.4z"/>
	<path class="st14" d="M110.4,218.3c-0.3,4.3-1.1,14.7-1.1,17.3c0,2.3,1.1,22.2,1.4,28.2c0.3,0,0.5-0.2,0.5-0.8
		c0.1-1.5,1.2-23.1,1.2-28.1c0.1-5,0.2-19.4,0.3-20.7c0.1-1-1-3.7-2-4.6C110.8,210.8,110.7,214.7,110.4,218.3z"/>
	<path class="st15" d="M112.5,237c0-0.6,0-1.2,0-1.6l-3-4.8c0,0.5-0.1,0.9-0.1,1.4L112.5,237z"/>
	<path class="st14" d="M20.8,218.3c0.3,4.3,1.1,14.7,1.1,17.3c0,2.3-1.1,22.2-1.4,28.2c-0.3,0-0.5-0.2-0.5-0.8
		c-0.1-1.5-1.2-23.1-1.2-28.1c-0.1-5-0.2-19.4-0.3-20.7c-0.1-1,1-3.7,2-4.6C20.5,210.8,20.6,214.7,20.8,218.3z"/>
	<path class="st15" d="M18.8,237c0-0.6,0-1.2,0-1.6l3-4.8c0,0.5,0.1,0.9,0.1,1.4L18.8,237z"/>
	<path class="st15" d="M65.3,276.1c31.1,0,42.2-6,42.2-6s-0.9-23.1-1-27.6c0-3.6-1.5-3.5-2.5-3.4c-1,0-1.1,0-6.8,0.7
		c-5.8,0.7-21.7,1.3-31.9,1.3s-26.1-0.7-31.9-1.3c-5.8-0.7-5.8-0.7-6.8-0.7c-1,0-2.5-0.1-2.5,3.4c0,4.5-1,27.6-1,27.6
		S34.2,276.1,65.3,276.1z"/>
	<path class="st14" d="M24.1,265.4c0.2-6,0.8-19.5,0.8-22.9c0-1.6,0.4-2.2,0.6-2.4c0.2-0.2,0.5-0.2,1-0.2c1,0,1,0,6.8,0.7
		c5.9,0.7,21.7,1.3,32,1.3c10.3,0,26.1-0.7,32-1.3c5.7-0.7,5.8-0.7,6.8-0.7c0.5,0,0.8,0,1,0.2c0.2,0.2,0.5,0.8,0.6,2.4
		c0,3.4,0.6,16.8,0.8,22.8c0.1,1.7-1,2.8-2,3.2c-4.8,1.7-16.8,4.8-39.2,4.8c-22.2,0-34.3-3-39.1-4.8C25.3,268.2,24,267.1,24.1,265.4
		z"/>
	<path class="st16" d="M26.2,268.6c4.8,1.8,16.8,4.8,39.1,4.8c22.3,0,34.4-3.2,39.2-4.8c1-0.3,2.1-1.5,2-3.2
		c-0.1-3.1-0.3-8-0.5-12.5c-7.3-1-22.5-2.2-40-2.2c-17.9,0-35.1,2.2-41.4,3.1c-0.2,4.3-0.4,8.8-0.5,11.7
		C24,267.1,25.3,268.2,26.2,268.6z"/>
	<path class="st17" d="M24.9,242.5c0,3.5-0.6,16.9-0.8,22.9c-0.1,1.6,1.2,2.8,2.1,3.1c4.8,1.8,16.7,4.8,38.8,4.8
		c-2.1-9-4.3-20.1-5.6-31.5c-9.7-0.2-21.3-0.7-26.1-1.3c-5.7-0.7-5.8-0.7-6.8-0.7c-0.5,0-0.8,0-1,0.2
		C25.3,240.3,24.9,240.9,24.9,242.5z"/>
	<path class="st15" d="M110.1,251.2c0.3,5.1,0.5,10,0.7,12.5c0.3,0,0.5-0.2,0.5-0.8c0.1-0.7,0.3-5.9,0.6-11.7H110.1z"/>
	<path class="st15" d="M19.4,251.2c0.3,5.8,0.5,11.1,0.6,11.8c0,0.5,0.3,0.7,0.5,0.8c0.2-2.5,0.4-7.5,0.7-12.6H19.4z"/>
	<g class="st18">
		<polygon class="st19" points="96.3,287.2 95.9,287.3 95.7,277.3 96.2,277.2 		"/>
	</g>
	<path class="st20" d="M24.9,3.2l0.5,1h0.1L106,4l0.4-0.8l0-0.9l0,0c-0.2,0-0.4,0-0.4,0S71.9,1.6,65.3,1.6c-6.3,0-37.2,0.6-40.5,0.7
		h0L24.9,3.2z"/>
	<path class="st21" d="M111.1,2.3c-0.6,0-3.6,0-4.7,0l0,0.9h5.6l2.4,5.8c0,0,0.1,0,0.3-0.1V8.8c0,0-0.2-2.3-1-4
		C112.8,3.1,111.8,2.4,111.1,2.3z"/>
	<path class="st21" d="M24.8,2.3c-0.2,0-0.3,0-0.3,0s-4.4,0-5,0c-0.7,0-1.8,0.8-2.6,2.5c-0.7,1.5-1,3.5-1,3.9c0.2,0.1,1,0.2,1,0.2
		l2.4-5.8h5.6L24.8,2.3z"/>
	<g>
		<path class="st22" d="M20.2,255.3h-1.6c0,0-6.5,2.4-7.4,2.8c-0.9,0.4-2.4,0.4-3.4,0c-1-0.4-3.6-1.6-4.1-2.1
			c-0.5-0.5-0.8-1.6-0.8-1.6s-1.7-1.7-1.8-2.6c-0.1-0.9,1-4.3,1-4.3l9.3,6.1l-0.3,1.2c0,0,2.2-0.9,3.7-1.5c1.5-0.6,5.3-1.2,5.3-1.2
			V255.3z"/>
		
			<linearGradient id="SVGID_10_" gradientUnits="userSpaceOnUse" x1="49.8194" y1="101.7942" x2="44.4905" y2="111.3862" gradientTransform="matrix(4.489659e-11 -1 1 4.489659e-11 -100.5966 300.2737)">
			<stop  offset="0" style="stop-color:#555E61"/>
			<stop  offset="1" style="stop-color:#222B2E"/>
		</linearGradient>
		<path class="st23" d="M11.1,254.8l0.3-1.2l-9.3-6.1c0,0-1.1,3.4-1,4.3c0.1,0.9,1.8,2.6,1.8,2.6s3.6,2.7,5.3,3.1
			C9.9,258,11.1,254.8,11.1,254.8z"/>
		<path class="st24" d="M1.1,251.8c0.1,0.9,1.8,2.6,1.8,2.6s3.6,2.7,5.3,3.1c0.5,0.1,0.9-0.1,1.3-0.4c-2.8-0.9-6.6-4.1-7-5.3
			c-0.3-0.8,0-2.7,0.2-4l-0.6-0.4C2.1,247.5,1,250.9,1.1,251.8z"/>
	</g>
	<g>
		<path class="st22" d="M110.4,255.3h1.6c0,0,6.5,2.4,7.4,2.8c0.9,0.4,2.4,0.4,3.4,0c1-0.4,3.6-1.6,4.1-2.1c0.5-0.5,0.8-1.6,0.8-1.6
			s1.7-1.7,1.8-2.6c0.1-0.9-1-4.3-1-4.3l-9.3,6.1l0.3,1.2c0,0-2.2-0.9-3.7-1.5c-1.5-0.6-5.3-1.2-5.3-1.2V255.3z"/>
		
			<linearGradient id="SVGID_11_" gradientUnits="userSpaceOnUse" x1="49.8191" y1="405.0453" x2="44.4906" y2="414.6367" gradientTransform="matrix(4.489659e-11 -1 -1 -4.489659e-11 534.4034 300.2737)">
			<stop  offset="0" style="stop-color:#555E61"/>
			<stop  offset="1" style="stop-color:#222B2E"/>
		</linearGradient>
		<path class="st25" d="M119.4,254.8l-0.3-1.2l9.3-6.1c0,0,1.1,3.4,1,4.3c-0.1,0.9-1.8,2.6-1.8,2.6s-3.6,2.7-5.3,3.1
			C120.7,258,119.4,254.8,119.4,254.8z"/>
		<path class="st24" d="M129.5,251.8c-0.1,0.9-1.8,2.6-1.8,2.6s-3.6,2.7-5.3,3.1c-0.5,0.1-0.9-0.1-1.3-0.4c2.8-0.9,6.6-4.1,7-5.3
			c0.3-0.8,0-2.7-0.2-4l0.6-0.4C128.5,247.5,129.6,250.9,129.5,251.8z"/>
	</g>
	<path class="st22" d="M111.4,279.1c0,0.1,0,0.2,0,0.2c-0.8,5.2-2.7,9.9-5.9,12.9c-3,2.7-6.8,4.2-11.6,4.6c-3.2,0.3-22,2.4-28.2,2.4
		c-6.2,0-24.9-2.1-28.2-2.4c-4.8-0.4-8.6-1.9-11.6-4.6c-3.3-3-5.1-7.7-5.9-12.9c0-0.1,0-0.2,0-0.2c-0.9-0.1-2.2-0.6-3.6-2.6
		c0.2,3.8,0.5,6.7,1.1,8.6c1.2,3.4,3.4,9.6,7.5,14.5c4.1,4.9,9.2,6.5,13.9,8c4.7,1.4,21.5,2.2,26.5,2.2c5.1,0,21.8-0.7,26.5-2.2
		c4.7-1.4,9.8-3.1,13.9-8c4.1-4.9,6.3-11.1,7.5-14.5c0.6-1.7,0.9-4.4,1.1-7.7C113.2,278.7,112.1,279,111.4,279.1z"/>
	<path class="st26" d="M65.6,305.8c-4.9,0-15.7-0.5-19.6-1c0,0-2.8-0.4-2.1,1c0.7,1.3,1.9,2.6,1.9,2.6s15.8,1.1,19.7,1.1
		c3.9,0,19.7-1.1,19.7-1.1s1.3-1.3,1.9-2.6c0.7-1.3-2.1-1-2.1-1C81.3,305.3,70.5,305.8,65.6,305.8z"/>
	<path class="st21" d="M25.9,292.3c-3.3-3-5.1-7.7-5.9-12.9c0-0.1,0-0.2,0-0.2c-0.5-0.1-1.3-0.3-2.1-0.9c0.3,3.1,1,6.8,2.8,11
		c3.9,9.3,10.4,12.5,16.2,13.8c5.9,1.3,20.9,2.3,28.8,2.3c7.9,0,23-1,28.8-2.3c5.9-1.3,12.4-4.5,16.2-13.8c1.7-4.2,2.5-7.9,2.8-11
		c-0.8,0.6-1.5,0.8-2.1,0.9c0,0.1,0,0.2,0,0.2c-0.8,5.2-2.7,9.9-5.9,12.9c-3,2.7-6.8,4.2-11.6,4.6c-3.2,0.3-22,2.4-28.2,2.4
		c-6.2,0-24.9-2.1-28.2-2.4C32.7,296.5,28.8,295,25.9,292.3z"/>
	
		<linearGradient id="SVGID_12_" gradientUnits="userSpaceOnUse" x1="5.29" y1="166.2301" x2="-12.919" y2="166.2301" gradientTransform="matrix(4.489659e-11 -1 1 4.489659e-11 -100.5966 300.2737)">
		<stop  offset="0" style="stop-color:#F9FCFF"/>
		<stop  offset="1" style="stop-color:#76797A"/>
	</linearGradient>
	<path class="st27" d="M38.2,303.3c6.6,1.2,20.1,2.1,27.5,2.1c7.4,0,20.9-0.9,27.5-2.1c0.2-1.6,0.6-4.8,0.7-6.4
		c-3.3,0.3-22,2.4-28.1,2.4s-24.8-2.1-28.1-2.4C37.6,298.5,38,301.7,38.2,303.3z"/>
	<g>
		<path class="st14" d="M68.1,283.3v3.9h-0.3v-3.7C67.9,283.3,68,283.3,68.1,283.3z"/>
		<path class="st14" d="M69.4,283.3v3.9c-0.1,0-0.2,0-0.3,0v-3.9C69.2,283.3,69.3,283.3,69.4,283.3z"/>
		<path class="st14" d="M70.6,283.3v3.9c-0.1,0-0.2,0-0.3,0v-3.9C70.4,283.3,70.5,283.3,70.6,283.3z"/>
		<path class="st14" d="M71.9,283.2v4c-0.1,0-0.2,0-0.3,0v-4C71.7,283.2,71.8,283.2,71.9,283.2z"/>
		<path class="st14" d="M73.1,283.2v4c-0.1,0-0.2,0-0.3,0v-4C72.9,283.2,73,283.2,73.1,283.2z"/>
		<path class="st14" d="M74.4,283.2v4c-0.1,0-0.2,0-0.3,0v-4C74.2,283.2,74.3,283.2,74.4,283.2z"/>
		<path class="st14" d="M75.6,283.1v4c-0.1,0-0.2,0-0.3,0v-4C75.4,283.1,75.5,283.1,75.6,283.1z"/>
		<path class="st14" d="M76.8,283.1L76.8,283.1l0.1,4c-0.1,0-0.2,0-0.3,0v-4C76.7,283.1,76.7,283.1,76.8,283.1z"/>
		<path class="st14" d="M78.1,283.1v4c-0.1,0-0.2,0-0.3,0v-4C77.9,283.1,78,283.1,78.1,283.1z"/>
		<path class="st14" d="M79.4,283v4c-0.1,0-0.2,0-0.3,0v-4C79.2,283,79.3,283,79.4,283z"/>
		<path class="st14" d="M80.6,282.9v4c-0.1,0-0.2,0-0.3,0v-4C80.4,282.9,80.5,282.9,80.6,282.9z"/>
		<path class="st14" d="M81.9,282.8v4c-0.1,0-0.2,0-0.3,0v-4C81.7,282.8,81.8,282.8,81.9,282.8z"/>
		<path class="st14" d="M83.1,282.8v3.9c-0.1,0-0.2,0-0.3,0v-3.9C83,282.8,83,282.8,83.1,282.8z"/>
		<path class="st14" d="M84.4,282.7v3.9c-0.1,0-0.2,0-0.3,0v-3.9C84.2,282.7,84.3,282.7,84.4,282.7z"/>
		<path class="st14" d="M85.4,282.7c0.1,0,0.2,0,0.3,0v3.8c0,0-0.1,0-0.1,0c0,0-0.1,0-0.1,0V282.7z"/>
	</g>
	<g>
		<path class="st14" d="M63.2,283.3v3.9h0.3v-3.7C63.4,283.3,63.3,283.3,63.2,283.3z"/>
		<path class="st14" d="M61.9,283.3v3.9c0.1,0,0.2,0,0.3,0v-3.9C62.1,283.3,62,283.3,61.9,283.3z"/>
		<path class="st14" d="M60.6,283.3v3.9c0.1,0,0.2,0,0.3,0v-3.9C60.8,283.3,60.7,283.3,60.6,283.3z"/>
		<path class="st14" d="M59.4,283.2v4c0.1,0,0.2,0,0.3,0v-4C59.6,283.2,59.5,283.2,59.4,283.2z"/>
		<path class="st14" d="M58.1,283.2v4c0.1,0,0.2,0,0.3,0v-4C58.3,283.2,58.2,283.2,58.1,283.2z"/>
		<path class="st14" d="M56.9,283.2v4c0.1,0,0.2,0,0.3,0v-4C57.1,283.2,57,283.2,56.9,283.2z"/>
		<path class="st14" d="M55.6,283.1v4c0.1,0,0.2,0,0.3,0v-4C55.8,283.1,55.7,283.1,55.6,283.1z"/>
		<path class="st14" d="M54.5,283.1L54.5,283.1l-0.1,4c0.1,0,0.2,0,0.3,0v-4C54.6,283.1,54.5,283.1,54.5,283.1z"/>
		<path class="st14" d="M53.1,283.1v4c0.1,0,0.2,0,0.3,0v-4C53.3,283.1,53.2,283.1,53.1,283.1z"/>
		<path class="st14" d="M51.9,283v4c0.1,0,0.2,0,0.3,0v-4C52.1,283,52,283,51.9,283z"/>
		<path class="st14" d="M50.6,282.9v4c0.1,0,0.2,0,0.3,0v-4C50.8,282.9,50.7,282.9,50.6,282.9z"/>
		<path class="st14" d="M49.4,282.8v4c0.1,0,0.2,0,0.3,0v-4C49.6,282.8,49.5,282.8,49.4,282.8z"/>
		<path class="st14" d="M48.1,282.8v3.9c0.1,0,0.2,0,0.3,0v-3.9C48.3,282.8,48.2,282.8,48.1,282.8z"/>
		<path class="st14" d="M46.9,282.7v3.9c0.1,0,0.2,0,0.3,0v-3.9C47.1,282.7,47,282.7,46.9,282.7z"/>
		<path class="st14" d="M45.9,282.7c-0.1,0-0.2,0-0.3,0v3.8c0,0,0.1,0,0.1,0c0,0,0.1,0,0.1,0V282.7z"/>
	</g>
	<rect x="18.8" y="68.6" class="st21" width="0.5" height="70.6"/>
	<g>
		
			<linearGradient id="SVGID_13_" gradientUnits="userSpaceOnUse" x1="548.0132" y1="115.8172" x2="548.0132" y2="116.8902" gradientTransform="matrix(-4.489659e-11 1 1 4.489659e-11 -100.5966 -334.734)">
			<stop  offset="0" style="stop-color:#555E61"/>
			<stop  offset="1" style="stop-color:#222B2E"/>
		</linearGradient>
		<rect x="15.2" y="210.3" class="st28" width="1" height="5.9"/>
		<rect x="15.2" y="211.1" class="st24" width="0.7" height="4.5"/>
		
			<linearGradient id="SVGID_14_" gradientUnits="userSpaceOnUse" x1="548.0054" y1="115.2247" x2="548.0054" y2="116.5673" gradientTransform="matrix(-4.489659e-11 1 1 4.489659e-11 -100.5966 -334.734)">
			<stop  offset="0" style="stop-color:#555E61"/>
			<stop  offset="1" style="stop-color:#222B2E"/>
		</linearGradient>
		<rect x="14.6" y="212.5" class="st29" width="1.3" height="1.6"/>
	</g>
	<g>
		
			<linearGradient id="SVGID_15_" gradientUnits="userSpaceOnUse" x1="530.1909" y1="115.6322" x2="530.1909" y2="116.7052" gradientTransform="matrix(-4.489659e-11 1 1 4.489659e-11 -100.5966 -334.734)">
			<stop  offset="0" style="stop-color:#555E61"/>
			<stop  offset="1" style="stop-color:#222B2E"/>
		</linearGradient>
		<rect x="15" y="192.5" class="st30" width="1" height="5.9"/>
		<rect x="15" y="193.3" class="st24" width="0.7" height="4.5"/>
		
			<linearGradient id="SVGID_16_" gradientUnits="userSpaceOnUse" x1="530.1826" y1="115.0401" x2="530.1826" y2="116.3828" gradientTransform="matrix(-4.489659e-11 1 1 4.489659e-11 -100.5966 -334.734)">
			<stop  offset="0" style="stop-color:#555E61"/>
			<stop  offset="1" style="stop-color:#222B2E"/>
		</linearGradient>
		<rect x="14.4" y="194.7" class="st31" width="1.3" height="1.6"/>
	</g>
	<g>
		
			<linearGradient id="SVGID_17_" gradientUnits="userSpaceOnUse" x1="548.3071" y1="402.8923" x2="548.3071" y2="403.9647" gradientTransform="matrix(-4.489659e-11 1 -1 -4.489659e-11 518.1534 -334.734)">
			<stop  offset="0" style="stop-color:#555E61"/>
			<stop  offset="1" style="stop-color:#222B2E"/>
		</linearGradient>
		<rect x="114.2" y="210.6" class="st32" width="1" height="5.9"/>
		<rect x="114.6" y="211.4" class="st24" width="0.7" height="4.5"/>
		
			<linearGradient id="SVGID_18_" gradientUnits="userSpaceOnUse" x1="548.2993" y1="402.2997" x2="548.2993" y2="403.6423" gradientTransform="matrix(-4.489659e-11 1 -1 -4.489659e-11 518.1534 -334.734)">
			<stop  offset="0" style="stop-color:#555E61"/>
			<stop  offset="1" style="stop-color:#222B2E"/>
		</linearGradient>
		<rect x="114.6" y="212.8" class="st33" width="1.3" height="1.6"/>
	</g>
	<g>
		
			<linearGradient id="SVGID_19_" gradientUnits="userSpaceOnUse" x1="217.0145" y1="220.7459" x2="217.0145" y2="221.8194" gradientTransform="matrix(1 0 0 1 -160.8005 -217.7516)">
			<stop  offset="0" style="stop-color:#555E61"/>
			<stop  offset="1" style="stop-color:#222B2E"/>
		</linearGradient>
		<rect x="53.2" y="3" class="st34" width="5.9" height="1"/>
		<rect x="54.1" y="3" class="st24" width="4.5" height="0.7"/>
		
			<linearGradient id="SVGID_20_" gradientUnits="userSpaceOnUse" x1="217.0062" y1="220.1538" x2="217.0062" y2="221.4959" gradientTransform="matrix(1 0 0 1 -160.8005 -217.7516)">
			<stop  offset="0" style="stop-color:#555E61"/>
			<stop  offset="1" style="stop-color:#222B2E"/>
		</linearGradient>
		<rect x="55.4" y="2.4" class="st35" width="1.6" height="1.3"/>
	</g>
	<g>
		<polygon class="st14" points="96.2,287.2 96.1,287.2 95.9,277.3 96,277.3 		"/>
	</g>
	<g class="st18">
		<polygon class="st19" points="35.4,287.2 34.9,287.3 34.8,277.3 35.2,277.2 		"/>
	</g>
	<g>
		<polygon class="st14" points="35.2,287.2 35.1,287.2 34.9,277.3 35.1,277.3 		"/>
	</g>
	<path class="st14" d="M23.1,270.1c0,0,0.5,2.5,4.7,5.5c4.2,3,29.7,4.7,37.4,4.7c7.7,0,33.2-1.8,37.4-4.7c4.3-3,4.7-5.5,4.7-5.5
		s-11.1,6-42.2,6C34.2,276.1,23.1,270.1,23.1,270.1z"/>
	<g>
		<path class="st36" d="M106.5,275c0,0,0-0.6,0.7-0.7c0.8-0.2,2.6-0.9,2.6,1.3s0,10.1-2.5,13.5c-2.5,3.4-7.4,7-12.8,7
			c0,0,1.2-6.6,1.3-9c0,0,5.4-1.2,7.9-4.6C106.3,279,106.5,275,106.5,275z"/>
		
			<linearGradient id="SVGID_21_" gradientUnits="userSpaceOnUse" x1="16.743" y1="127.2456" x2="14.1243" y2="123.3627" gradientTransform="matrix(4.489659e-11 -1 -1 -4.489659e-11 226.8067 300.2737)">
			<stop  offset="0" style="stop-color:#474747"/>
			<stop  offset="3.997359e-03" style="stop-color:#4C4C4C"/>
			<stop  offset="2.550068e-02" style="stop-color:#626262"/>
			<stop  offset="5.090187e-02" style="stop-color:#737373"/>
			<stop  offset="8.232994e-02" style="stop-color:#7E7E7E"/>
			<stop  offset="0.1264" style="stop-color:#858585"/>
			<stop  offset="0.2488" style="stop-color:#878787"/>
			<stop  offset="0.3574" style="stop-color:#D3D3D3"/>
			<stop  offset="0.4456" style="stop-color:#F3F3F3"/>
			<stop  offset="0.483" style="stop-color:#FFFFFF"/>
			<stop  offset="0.5577" style="stop-color:#FFFFFF"/>
			<stop  offset="0.7206" style="stop-color:#D3D3D3"/>
			<stop  offset="0.7706" style="stop-color:#BFBFBF"/>
			<stop  offset="0.8699" style="stop-color:#878787"/>
		</linearGradient>
		<path class="st37" d="M94.8,295.8c5.1-0.1,9.9-3.5,12.3-6.9c1.6-2.2,2.4-6.7,2.4-13.4c0-0.5-0.1-0.9-0.4-1.1
			c-0.4-0.3-1.1-0.1-1.6,0c-0.1,0-0.2,0.1-0.3,0.1c-0.5,0.1-0.5,0.4-0.5,0.5c0,0.2-0.2,4.1-2.8,7.6c-2.4,3.2-6.9,4.5-7.9,4.7
			C95.8,289.5,95,294.6,94.8,295.8z"/>
		
			<linearGradient id="SVGID_22_" gradientUnits="userSpaceOnUse" x1="12.834" y1="124.0225" x2="12.834" y2="130.6269" gradientTransform="matrix(4.489659e-11 -1 -1 -4.489659e-11 226.8067 300.2737)">
			<stop  offset="0" style="stop-color:#474747"/>
			<stop  offset="3.997359e-03" style="stop-color:#4C4C4C"/>
			<stop  offset="2.550068e-02" style="stop-color:#626262"/>
			<stop  offset="5.090187e-02" style="stop-color:#737373"/>
			<stop  offset="8.232994e-02" style="stop-color:#7E7E7E"/>
			<stop  offset="0.1264" style="stop-color:#858585"/>
			<stop  offset="0.2488" style="stop-color:#878787"/>
			<stop  offset="0.3574" style="stop-color:#D3D3D3"/>
			<stop  offset="0.4456" style="stop-color:#F3F3F3"/>
			<stop  offset="0.483" style="stop-color:#FFFFFF"/>
			<stop  offset="0.5577" style="stop-color:#FFFFFF"/>
			<stop  offset="0.7206" style="stop-color:#D3D3D3"/>
			<stop  offset="0.7706" style="stop-color:#BFBFBF"/>
			<stop  offset="0.8699" style="stop-color:#878787"/>
		</linearGradient>
		<path class="st38" d="M102.8,283.8v7.3h-6.7v-3.8C97.1,287,100.4,286,102.8,283.8z"/>
		<path class="st19" d="M99.4,289.7c-1.9,0-3.4,0.6-3.4,1.4c0,0.8,1.5,1.4,3.4,1.4c1.9,0,3.4-0.6,3.4-1.4
			C102.8,290.3,101.3,289.7,99.4,289.7z"/>
		
			<linearGradient id="SVGID_23_" gradientUnits="userSpaceOnUse" x1="15.7505" y1="120.4846" x2="15.7505" y2="124.0863" gradientTransform="matrix(4.489659e-11 -1 -1 -4.489659e-11 226.8067 300.2737)">
			<stop  offset="0" style="stop-color:#474747"/>
			<stop  offset="3.997359e-03" style="stop-color:#4C4C4C"/>
			<stop  offset="2.550068e-02" style="stop-color:#626262"/>
			<stop  offset="5.090187e-02" style="stop-color:#737373"/>
			<stop  offset="8.232994e-02" style="stop-color:#7E7E7E"/>
			<stop  offset="0.1264" style="stop-color:#858585"/>
			<stop  offset="0.2488" style="stop-color:#878787"/>
			<stop  offset="0.3574" style="stop-color:#D3D3D3"/>
			<stop  offset="0.4456" style="stop-color:#F3F3F3"/>
			<stop  offset="0.483" style="stop-color:#FFFFFF"/>
			<stop  offset="0.5577" style="stop-color:#FFFFFF"/>
			<stop  offset="0.7206" style="stop-color:#D3D3D3"/>
			<stop  offset="0.7706" style="stop-color:#BFBFBF"/>
			<stop  offset="0.8699" style="stop-color:#878787"/>
		</linearGradient>
		<path class="st39" d="M103.9,282.6c0.3-0.4,0.6-0.9,0.9-1.3h1.6v6.5H101v-2.6C102.1,284.5,103.1,283.6,103.9,282.6z"/>
		<path class="st19" d="M103.7,286.7c-1.5,0-2.7,0.5-2.7,1.1c0,0.6,1.2,1.1,2.7,1.1c1.5,0,2.7-0.5,2.7-1.1
			C106.4,287.2,105.2,286.7,103.7,286.7z"/>
		
			<linearGradient id="SVGID_24_" gradientUnits="userSpaceOnUse" x1="21.8779" y1="118.1145" x2="21.8779" y2="122.4776" gradientTransform="matrix(4.489659e-11 -1 -1 -4.489659e-11 226.8067 300.2737)">
			<stop  offset="0" style="stop-color:#474747"/>
			<stop  offset="3.997359e-03" style="stop-color:#4C4C4C"/>
			<stop  offset="2.550068e-02" style="stop-color:#626262"/>
			<stop  offset="5.090187e-02" style="stop-color:#737373"/>
			<stop  offset="8.232994e-02" style="stop-color:#7E7E7E"/>
			<stop  offset="0.1264" style="stop-color:#858585"/>
			<stop  offset="0.2488" style="stop-color:#878787"/>
			<stop  offset="0.3574" style="stop-color:#D3D3D3"/>
			<stop  offset="0.4456" style="stop-color:#F3F3F3"/>
			<stop  offset="0.483" style="stop-color:#FFFFFF"/>
			<stop  offset="0.5577" style="stop-color:#FFFFFF"/>
			<stop  offset="0.7206" style="stop-color:#D3D3D3"/>
			<stop  offset="0.7706" style="stop-color:#BFBFBF"/>
			<stop  offset="0.8699" style="stop-color:#878787"/>
		</linearGradient>
		<path class="st40" d="M108.6,282.5h-4.1v-0.7c2.1-3.2,2.2-6.6,2.2-6.8c0-0.1,0-0.4,0.5-0.5c0.1,0,0.2,0,0.3-0.1
			c0.3-0.1,0.7-0.2,1-0.2V282.5z"/>
		<path class="st19" d="M106.5,281.7c-1.1,0-2.1,0.4-2.1,0.8c0,0.5,0.9,0.8,2.1,0.8c1.1,0,2.1-0.4,2.1-0.8
			C108.6,282,107.6,281.7,106.5,281.7z"/>
		
			<linearGradient id="SVGID_25_" gradientUnits="userSpaceOnUse" x1="16.4366" y1="121.9038" x2="9.815" y2="130.5237" gradientTransform="matrix(4.489659e-11 -1 -1 -4.489659e-11 226.8067 300.2737)">
			<stop  offset="0" style="stop-color:#FFFFFF"/>
			<stop  offset="1" style="stop-color:#000000"/>
		</linearGradient>
		<path class="st41" d="M94.8,295.8c5.1-0.1,9.9-3.5,12.3-6.9c1.6-2.2,2.4-6.7,2.4-13.4c0-0.5-0.1-0.9-0.4-1.1
			c-0.4-0.3-1.1-0.1-1.6,0c-0.1,0-0.2,0.1-0.3,0.1c-0.5,0.1-0.5,0.4-0.5,0.5c0,0.2-0.2,4.1-2.8,7.6c-2.4,3.2-6.9,4.5-7.9,4.7
			C95.8,289.5,95,294.6,94.8,295.8z"/>
		<path class="st42" d="M103.9,282.6c2.6-3.5,2.8-7.4,2.8-7.6c0-0.1,0-0.4,0.5-0.5c0.1,0,0.2,0,0.3-0.1c0.2,0,0.4-0.1,0.6-0.1
			c0,2.4-0.2,8.7-2.7,12.3c-2.7,3.8-7.6,6.6-10.2,5.9c0.3-1.9,0.6-4,0.7-5.2C97,287,101.6,285.7,103.9,282.6z"/>
	</g>
	<path class="st43" d="M105.9,4.2h5.6l2.9,4.5c0,0-0.2-1.8-0.6-2.8c-0.4-1-1.8-2.7-1.8-2.7h-5.6L105.9,4.2z"/>
	<path class="st43" d="M25.4,4.2h-5.6l-2.9,4.5c0,0,0.2-1.8,0.6-2.8c0.4-1,1.8-2.7,1.8-2.7h5.6L25.4,4.2z"/>
	<g>
		<path class="st36" d="M24.8,275c0,0,0-0.6-0.7-0.7c-0.8-0.2-2.6-0.9-2.6,1.3s0,10.1,2.5,13.5c2.5,3.4,7.4,7,12.8,7
			c0,0-1.2-6.6-1.3-9c0,0-5.4-1.2-7.9-4.6C25,279,24.8,275,24.8,275z"/>
		
			<linearGradient id="SVGID_26_" gradientUnits="userSpaceOnUse" x1="16.7429" y1="132.3034" x2="14.1242" y2="128.4204" gradientTransform="matrix(4.489659e-11 -1 1 4.489659e-11 -100.5966 300.2737)">
			<stop  offset="0" style="stop-color:#474747"/>
			<stop  offset="3.997359e-03" style="stop-color:#4C4C4C"/>
			<stop  offset="2.550068e-02" style="stop-color:#626262"/>
			<stop  offset="5.090187e-02" style="stop-color:#737373"/>
			<stop  offset="8.232994e-02" style="stop-color:#7E7E7E"/>
			<stop  offset="0.1264" style="stop-color:#858585"/>
			<stop  offset="0.2488" style="stop-color:#878787"/>
			<stop  offset="0.3574" style="stop-color:#D3D3D3"/>
			<stop  offset="0.4456" style="stop-color:#F3F3F3"/>
			<stop  offset="0.483" style="stop-color:#FFFFFF"/>
			<stop  offset="0.5577" style="stop-color:#FFFFFF"/>
			<stop  offset="0.7206" style="stop-color:#D3D3D3"/>
			<stop  offset="0.7706" style="stop-color:#BFBFBF"/>
			<stop  offset="0.8699" style="stop-color:#878787"/>
		</linearGradient>
		<path class="st44" d="M36.5,295.8c-5.1-0.1-9.9-3.5-12.3-6.9c-1.6-2.2-2.4-6.7-2.4-13.4c0-0.5,0.1-0.9,0.4-1.1
			c0.4-0.3,1.1-0.1,1.6,0c0.1,0,0.2,0.1,0.3,0.1c0.5,0.1,0.5,0.4,0.5,0.5c0,0.2,0.2,4.1,2.8,7.6c2.4,3.2,6.9,4.5,7.9,4.7
			C35.4,289.5,36.3,294.6,36.5,295.8z"/>
		
			<linearGradient id="SVGID_27_" gradientUnits="userSpaceOnUse" x1="12.834" y1="129.0809" x2="12.834" y2="135.6848" gradientTransform="matrix(4.489659e-11 -1 1 4.489659e-11 -100.5966 300.2737)">
			<stop  offset="0" style="stop-color:#474747"/>
			<stop  offset="3.997359e-03" style="stop-color:#4C4C4C"/>
			<stop  offset="2.550068e-02" style="stop-color:#626262"/>
			<stop  offset="5.090187e-02" style="stop-color:#737373"/>
			<stop  offset="8.232994e-02" style="stop-color:#7E7E7E"/>
			<stop  offset="0.1264" style="stop-color:#858585"/>
			<stop  offset="0.2488" style="stop-color:#878787"/>
			<stop  offset="0.3574" style="stop-color:#D3D3D3"/>
			<stop  offset="0.4456" style="stop-color:#F3F3F3"/>
			<stop  offset="0.483" style="stop-color:#FFFFFF"/>
			<stop  offset="0.5577" style="stop-color:#FFFFFF"/>
			<stop  offset="0.7206" style="stop-color:#D3D3D3"/>
			<stop  offset="0.7706" style="stop-color:#BFBFBF"/>
			<stop  offset="0.8699" style="stop-color:#878787"/>
		</linearGradient>
		<path class="st45" d="M28.5,283.8v7.3h6.7v-3.8C34.2,287,30.8,286,28.5,283.8z"/>
		<path class="st19" d="M31.8,289.7c1.9,0,3.4,0.6,3.4,1.4c0,0.8-1.5,1.4-3.4,1.4c-1.9,0-3.4-0.6-3.4-1.4
			C28.5,290.3,30,289.7,31.8,289.7z"/>
		
			<linearGradient id="SVGID_28_" gradientUnits="userSpaceOnUse" x1="15.7505" y1="125.5424" x2="15.7505" y2="129.1441" gradientTransform="matrix(4.489659e-11 -1 1 4.489659e-11 -100.5966 300.2737)">
			<stop  offset="0" style="stop-color:#474747"/>
			<stop  offset="3.997359e-03" style="stop-color:#4C4C4C"/>
			<stop  offset="2.550068e-02" style="stop-color:#626262"/>
			<stop  offset="5.090187e-02" style="stop-color:#737373"/>
			<stop  offset="8.232994e-02" style="stop-color:#7E7E7E"/>
			<stop  offset="0.1264" style="stop-color:#858585"/>
			<stop  offset="0.2488" style="stop-color:#878787"/>
			<stop  offset="0.3574" style="stop-color:#D3D3D3"/>
			<stop  offset="0.4456" style="stop-color:#F3F3F3"/>
			<stop  offset="0.483" style="stop-color:#FFFFFF"/>
			<stop  offset="0.5577" style="stop-color:#FFFFFF"/>
			<stop  offset="0.7206" style="stop-color:#D3D3D3"/>
			<stop  offset="0.7706" style="stop-color:#BFBFBF"/>
			<stop  offset="0.8699" style="stop-color:#878787"/>
		</linearGradient>
		<path class="st46" d="M27.3,282.6c-0.3-0.4-0.6-0.9-0.9-1.3h-1.6v6.5h5.4v-2.6C29.2,284.5,28.1,283.6,27.3,282.6z"/>
		<path class="st19" d="M27.6,286.7c1.5,0,2.7,0.5,2.7,1.1c0,0.6-1.2,1.1-2.7,1.1c-1.5,0-2.7-0.5-2.7-1.1
			C24.9,287.2,26.1,286.7,27.6,286.7z"/>
		
			<linearGradient id="SVGID_29_" gradientUnits="userSpaceOnUse" x1="21.8779" y1="123.1729" x2="21.8779" y2="127.5359" gradientTransform="matrix(4.489659e-11 -1 1 4.489659e-11 -100.5966 300.2737)">
			<stop  offset="0" style="stop-color:#474747"/>
			<stop  offset="3.997359e-03" style="stop-color:#4C4C4C"/>
			<stop  offset="2.550068e-02" style="stop-color:#626262"/>
			<stop  offset="5.090187e-02" style="stop-color:#737373"/>
			<stop  offset="8.232994e-02" style="stop-color:#7E7E7E"/>
			<stop  offset="0.1264" style="stop-color:#858585"/>
			<stop  offset="0.2488" style="stop-color:#878787"/>
			<stop  offset="0.3574" style="stop-color:#D3D3D3"/>
			<stop  offset="0.4456" style="stop-color:#F3F3F3"/>
			<stop  offset="0.483" style="stop-color:#FFFFFF"/>
			<stop  offset="0.5577" style="stop-color:#FFFFFF"/>
			<stop  offset="0.7206" style="stop-color:#D3D3D3"/>
			<stop  offset="0.7706" style="stop-color:#BFBFBF"/>
			<stop  offset="0.8699" style="stop-color:#878787"/>
		</linearGradient>
		<path class="st47" d="M22.7,282.5h4.1v-0.7c-2.1-3.2-2.2-6.6-2.2-6.8c0-0.1,0-0.4-0.5-0.5c-0.1,0-0.2,0-0.3-0.1
			c-0.3-0.1-0.7-0.2-1-0.2V282.5z"/>
		<path class="st19" d="M24.8,281.7c1.1,0,2.1,0.4,2.1,0.8c0,0.5-0.9,0.8-2.1,0.8c-1.1,0-2.1-0.4-2.1-0.8
			C22.7,282,23.6,281.7,24.8,281.7z"/>
		
			<linearGradient id="SVGID_30_" gradientUnits="userSpaceOnUse" x1="16.4366" y1="126.9617" x2="9.8149" y2="135.5818" gradientTransform="matrix(4.489659e-11 -1 1 4.489659e-11 -100.5966 300.2737)">
			<stop  offset="0" style="stop-color:#FFFFFF"/>
			<stop  offset="1" style="stop-color:#000000"/>
		</linearGradient>
		<path class="st48" d="M36.5,295.8c-5.1-0.1-9.9-3.5-12.3-6.9c-1.6-2.2-2.4-6.7-2.4-13.4c0-0.5,0.1-0.9,0.4-1.1
			c0.4-0.3,1.1-0.1,1.6,0c0.1,0,0.2,0.1,0.3,0.1c0.5,0.1,0.5,0.4,0.5,0.5c0,0.2,0.2,4.1,2.8,7.6c2.4,3.2,6.9,4.5,7.9,4.7
			C35.4,289.5,36.3,294.6,36.5,295.8z"/>
		<path class="st42" d="M27.3,282.6c-2.6-3.5-2.8-7.4-2.8-7.6c0-0.1,0-0.4-0.5-0.5c-0.1,0-0.2,0-0.3-0.1c-0.2,0-0.4-0.1-0.6-0.1
			c0,2.4,0.2,8.7,2.7,12.3c2.7,3.8,7.6,6.6,10.2,5.9c-0.3-1.9-0.6-4-0.7-5.2C34.3,287,29.7,285.7,27.3,282.6z"/>
	</g>
</g>
</svg>
